<?xml version="1.0" encoding="utf-8"?>
<!-- Generator: Adobe Illustrator 28.0.0, SVG Export Plug-In . SVG Version: 6.00 Build 0)  -->
<svg version="1.1" id="Layer_1" xmlns="http://www.w3.org/2000/svg" xmlns:xlink="http://www.w3.org/1999/xlink" x="0px" y="0px"
	 viewBox="0 0 1280 1136" style="enable-background:new 0 0 1280 1136;" xml:space="preserve">
<style type="text/css">
	.st0{fill:#4272C2;}
	.st1{fill:#A0BCE6;}
	.st2{fill:#A1BDE6;}
	.st3{fill:#A2BDE6;}
</style>
<path class="st0" d="M761,90c1.1,0.2,2.2,0.4,3.4,0.6c16.4,2.8,32.5,6.3,48.6,10.4c0.9,0.2,1.8,0.5,2.8,0.7c24,6,47.9,14,70.2,24.6
	c5,2.4,10.1,4.7,15.2,7c15.2,6.9,29.8,14.4,44,23.1c2.8,1.7,5.5,3.3,8.3,4.9c7.7,4.5,15.3,9.1,22.4,14.5c2.5,1.9,5.1,3.7,7.7,5.5
	c9.3,6.4,18.3,12.9,26.8,20.4c2.2,2,4.5,3.9,6.8,5.8c1.2,1,2.4,2,3.6,3.1c2.8,2.4,5.5,4.7,8.4,7c6.8,5.5,13,11.4,19.2,17.6
	c0.7,0.8,1.5,1.5,2.3,2.3c4.1,4.1,8,8.4,11.8,12.8c1.5,1.7,3.1,3.3,4.8,4.9c5,4.9,9.2,10.6,13.4,16.2c1.8,2.3,3.6,4.5,5.4,6.7
	c10.6,13.2,20.1,26.8,29.1,41.1c1.7,2.7,3.5,5.4,5.2,8.1c7.1,10.9,13.7,22,19.5,33.6c1,2,2,4,3.1,6c9.2,17.7,16.6,36.4,23.3,55.2
	c0.7,1.8,1.3,3.7,2,5.5c11,29.4,17.2,61.3,20.8,92.4c0.2,1.4,0.3,2.9,0.5,4.3c0.5,3.9,0.9,7.8,1.4,11.7c0.1,0.7,0.2,1.3,0.3,2
	c0.9,7.2,0.9,14.4,0.9,21.6c0,0.7,0,1.4,0,2.1c0,3.7,0,7.4,0,11.1c0,3,0,6,0,9c0.1,19.3-0.6,38-3.3,57.2c-0.2,1.2-0.3,2.3-0.5,3.5
	c-2.2,15.4-4.9,30.5-8.5,45.5c-0.2,0.9-0.4,1.8-0.6,2.7c-10.6,45.3-28.1,93.6-54.8,132c-2.2,3.3-4.3,6.6-6.4,10
	c-8.4,13.5-17.2,26.2-27.2,38.4c-0.7-0.3-1.3-0.7-2-1c-0.1,0.7-0.2,1.4-0.2,2.2c-0.9,3.5-2.5,5.3-4.9,8.1c-2.9,3.4-5.6,6.7-8.3,10.2
	c-3.5,4.6-7.6,8.6-11.8,12.6c-2.2,2.1-4.2,4.3-6.1,6.7c-4,4.6-8.2,8.9-12.4,13.2c-0.8,0.8-1.6,1.6-2.4,2.4
	c-4.9,4.9-9.9,9.4-15.4,13.7c-2.6,2-5,4.2-7.4,6.4c-13.1,11.9-27.3,23-42.2,32.6c-4.2,2.8-8.2,6-12.2,9.1c-2.7,1.8-4.5,2.4-7.7,2.8
	c0,0.7,0,1.3,0,2c-0.6,0.3-1.2,0.7-1.9,1c-5.7,3-11.2,6.2-16.7,9.6c-14.9,9-30.3,16.6-46.4,23.4c-1.3,0.6-2.6,1.1-3.9,1.7
	c-3.4,1.4-6.8,2.9-10.1,4.3c-1.1,0.5-2.3,1-3.4,1.5c-47.3,20.1-105.9,38-157.9,36.5c-2.4,0-4.3,0.4-6.6,1c-1.8-1.8-1.1-4.6-1.1-7
	c0-0.7,0-1.3,0-2c0-2.2,0-4.4,0-6.5c0-1.6,0-3.1,0-4.7c0-4.3,0-8.7,0-13c0-4.7,0-9.3,0-14c0-9.1,0-18.3,0-27.4c0-7.4,0-14.8,0-22.3
	c0-1.6,0-1.6,0-3.2c0-2.1,0-4.3,0-6.4c0-20.1,0-40.2,0-60.3c0-17.3,0-34.5,0-51.8c0-20,0-40,0-60.1c0-2.1,0-4.3,0-6.4
	c0-1,0-2.1,0-3.2c0-7.4,0-14.8,0-22.2c0-9,0-18.1,0-27.1c0-4.6,0-9.2,0-13.8c0-4.2,0-8.4,0-12.7c0-1.5,0-3.1,0-4.6
	c0-2.1,0-4.1,0-6.2c0-1.1,0-2.3,0-3.5c0.1-2.6,0.1-2.6,1.1-3.6c3-0.1,5.9-0.1,8.8-0.1c0.9,0,1.9,0,2.8,0c3.2,0,6.3,0,9.5,0
	c2.2,0,4.5,0,6.8,0c6.1,0,12.3,0,18.4,0c6.4,0,12.8,0,19.2,0c10.8,0,21.5,0,32.3,0c11.1,0,22.2,0,33.3,0c0.7,0,1.4,0,2.1,0
	c3.4,0,6.9,0,10.3,0c28.5,0,57,0,85.4,0c0-12.4,0-24.8,0-37.2c0-5.8,0-11.5,0-17.3c0-5.6,0-11.1,0-16.7c0-2.1,0-4.2,0-6.3
	c0-11.2,0-22.3-1.1-33.4c-1.8,0-1.8,0-3.6,0c-27.8,0-55.7,0-83.5,0c-3.4,0-6.8,0-10.3,0c-0.7,0-1.4,0-2.1,0c-11,0-22.1,0-33.2,0
	c-11.3,0-22.7,0-34,0c-6.4,0-12.7,0-19.1,0c-6,0-12,0-18,0c-2.2,0-4.4,0-6.6,0c-3,0-6,0-9,0c-1.3,0-1.3,0-2.7,0c-6,0-6,0-7.1-1.1
	c-0.1-1.4-0.1-2.8-0.2-4.1c0-1.3,0-1.3,0-2.7c0-1.5,0-1.5,0-3c0-1.5,0-1.5,0-3.1c0-3.5,0-6.9,0-10.4c0-1.2,0-2.4,0-3.6
	c0-6.3,0-12.6,0-18.9c0-6.4,0-12.9-0.1-19.3c0-5,0-10,0-15c0-2.4,0-4.7,0-7.1c-0.3-34.9,6.4-68,31.5-93.8c14.8-14.9,32.8-22.5,53-27
	c0.9-0.2,1.8-0.4,2.7-0.6c10.3-2.5,20.6-2.5,31.1-2.5c1.2,0,2.5,0,3.8,0c19.2,0,38.1,1.3,57.1,3.8c1.5,0.2,1.5,0.2,3,0.4
	c19.9,2.6,39.4,5.9,58.5,12.1c3.3,1,6.4,1.5,9.8,1.9c-0.1-0.6-0.3-1.2-0.4-1.8c-1.9-9.1-1.8-18.1-1.8-27.3c0-1.8,0-3.5,0-5.3
	c0-3.7,0-7.3,0-11c0-4.6,0-9.3,0-13.9c0-3.6,0-7.2,0-10.9c0-1.7,0-3.4,0-5.1c0-12.3,0.5-24.5,1.2-36.8c-0.7,0-1.3,0-2,0
	c0-0.7,0-1.3,0-2c-1-0.1-2-0.3-3.1-0.4c-3.5-0.5-7-1.2-10.5-1.9c-1.2-0.2-2.5-0.5-3.8-0.8c-0.7-0.1-1.3-0.3-2-0.4
	c-33.5-6.6-66.6-10.8-100.8-11.5c-6.7-0.2-13.4-0.5-20.2-0.9c-0.9-0.1-1.7-0.1-2.6-0.1c-1.1-0.1-1.1-0.1-2.3-0.1
	c-1.9-0.1-1.9-0.1-3.8,1c-1.8,0.1-3.5,0.2-5.3,0.2c-48,0.9-102.4,10-142.7,37.8c-1.8,1.1-3.5,2.2-5.3,3.2c-6.4,4-12,8.8-17.7,13.8
	c-0.7,0.6-1.4,1.2-2.2,1.8c-9.6,7.6-9.6,7.6-16.8,17.2c-1,2-1,2-3.4,4.3c-2.8,2.9-4.9,5.9-7,9.3c-0.3,0.6-0.7,1.1-1,1.7
	c-0.8,1.2-1.5,2.4-2.2,3.6c-1,1.6-2,3.1-3,4.6c-4.1,6.3-7.6,12.7-10.8,19.6c-0.5,1-0.9,2.1-1.4,3.1c-12.9,29.2-19.6,60.8-20.7,92.7
	c0,1.2-0.1,2.3-0.1,3.6c-0.6,20.4-0.7,40.8-0.9,61.1c0,6-0.1,12-0.2,18c0,2.8,0,5.6-0.1,8.4c0,1.7,0,3.4,0,5.1c0,1.1,0,1.1,0,2.3
	c0,3.1-0.2,5.6-1.2,8.6c0.3,0.7,0.7,1.3,1,2c-2.9,1.5-5.4,1.1-8.7,1.1c-1,0-1,0-2.1,0c-2.3,0-4.7,0-7,0c-1.7,0-3.3,0-5,0
	c-4.5,0-9.1,0-13.6,0c-4.7,0-9.5,0-14.2,0c-9,0-17.9,0-26.9,0c-12.1,0-24.2,0-36.3,0c-19.1,0-38.2,0-57.3,0c0.3,36.6,0.7,73.3,1,111
	c12.1,0,24.2-0.1,36.7-0.1c7.6,0,15.3,0,22.9,0c12.1,0,24.3,0,36.5-0.1c8.9,0,17.7-0.1,26.5-0.1c4.7,0,9.4,0,14.1,0
	c4.4,0,8.8,0,13.2,0c1.6,0,3.2,0,4.9,0c2.2,0,4.4,0,6.6,0c1.2,0,2.5,0,3.8,0c1.4,0.2,1.4,0.2,2.9,0.4c2.3,3.5,2.2,5,2.2,9.2
	c0,1.3,0,2.6,0,3.9c0,1.5,0,2.9,0,4.3c0,1.5,0,3.1,0,4.6c0,4.2,0,8.4,0,12.6c0,4.5,0,9.1,0,13.6c0,7.9,0,15.7,0,23.6
	c0,11.4,0,22.7,0,34.1c0,18.4,0,36.9,0,55.3c0,17.9,0,35.8,0,53.8c0,1.1,0,2.2,0,3.3c0,5.5,0,11.1,0,16.6c0,46-0.1,92-0.1,138
	c-2.5-0.5-5.1-0.9-7.7-1.4c-0.7-0.1-1.4-0.3-2.2-0.4c-5.5-1-10.9-2.2-16.4-3.5c-0.9-0.2-1.7-0.4-2.6-0.6
	c-19.8-4.8-38.9-11.1-57.9-18.6c-4-1.6-7.9-3-11.9-4.4c-5-1.8-9.7-4.2-14.5-6.6c-4.2-2.2-8.5-4.2-12.8-6.1
	c-15-6.7-29.2-14.3-43.4-22.7c-2.3-1.3-4.5-2.6-6.9-3.9c-9.5-5.2-18.1-11.3-26.9-17.7c-1-0.7-2-1.4-3-2.2c-2.7-1.9-5.3-3.9-8-5.8
	c-1.2-0.9-2.4-1.8-3.6-2.6c-10.4-7.5-20.3-15.5-29.8-24.1c-2.6-2.3-5.4-4.6-8.1-6.8c-3.4-2.8-6.9-5.6-10.2-8.5
	c-0.6-0.6-1.3-1.1-2-1.7c-2.6-2.6-5-5.3-7.4-8.1c-3.1-3.5-6.2-6.9-9.4-10.2c-0.6-0.7-1.2-1.3-1.9-2c-3.1-3.3-6.1-6.5-9.3-9.6
	c-2.6-2.6-4.9-5.3-7-8.4c-3.1-4.4-6.4-8.7-9.7-12.9c-0.5-0.6-0.9-1.2-1.4-1.8c-2.8-3.5-5.7-7-8.6-10.4c-5.7-7-10.3-14.6-15-22.3
	c-2.1-3.3-4.2-6.6-6.3-9.9c-5.4-8.4-10.5-16.9-15.3-25.6c-0.3-0.6-0.6-1.2-1-1.8c-8.1-14.6-15.4-29.6-21-45.2
	c-0.5-1.4-1-2.8-1.6-4.2c-1.5-4-3-8.1-4.5-12.2c-0.6-1.8-1.3-3.5-1.9-5.3c-5.5-14.8-9.7-29.8-13.3-45.3c-0.6-2.6-1.2-5.2-1.9-7.8
	c-4.9-20.6-8.3-42.2-9.8-63.3c-0.1-1.2-0.2-2.4-0.3-3.6C149,559.7,153.3,503.7,169,451c0.2-0.7,0.4-1.4,0.6-2.1
	c9.7-32.4,9.7-32.4,15.9-46.6c1.4-3.2,2.7-6.5,3.9-9.9c2.5-6.7,5.6-13.1,8.7-19.5c1.7-3.6,3.3-7.3,4.9-11c0.7,0,1.3,0,2,0
	c0.4-1.3,0.4-1.3,0.8-2.6c1.3-3.6,2.9-7,4.7-10.4c0.3-0.6,0.7-1.3,1-2c3.4-6.1,7.2-11.9,11.2-17.7c1.8-2.7,3.6-5.5,5.2-8.3
	c12.1-20.5,12.1-20.5,20.2-29c2.1-2.3,3.8-4.6,5.6-7.1c9.2-12.9,19.5-24.5,30.4-35.9c2.5-2.7,5-5.4,7.5-8
	c14.6-15.8,14.6-15.8,23-22.1c4.3-3.4,8.3-7.2,12.4-10.9c11.3-10.3,23.7-19,36.2-27.6c2.8-2,5.7-4,8.4-6c8.9-6.6,18.3-11.9,28-17.3
	c4.3-2.4,8.5-4.9,12.7-7.5c7.7-4.8,15.4-9.1,23.8-12.4c3.8-1.5,7.4-3.2,11-5c8.2-3.9,16.5-7.7,24.9-11.2c1.4-0.6,1.4-0.6,2.8-1.2
	c44.5-18.3,92.1-28.3,139.8-33.9c1-0.1,1.9-0.2,2.9-0.3c0.8-0.1,1.7-0.2,2.5-0.3c2.1-0.2,2.1-0.2,4-1.3
	C668.9,79.2,716.6,82.6,761,90z"/>
<path class="st1" d="M733,577c12.2,0,24.4,0,37,0c0,1,0,2,0,3c-12.2,0-24.4,0-37,0C733,579,733,578,733,577z"/>
<path class="st2" d="M486,577c5.3,0,10.6,0,16,0c0,1,0,2,0,3c-5.3,0-10.6,0-16,0C486,579,486,578,486,577z"/>
<path class="st3" d="M853,577c4.6,0,9.2,0,14,0c0,1,0,2,0,3c-4.6,0-9.2,0-14,0C853,579,853,578,853,577z"/>
</svg>
