<?xml version="1.0" standalone="no"?>
<!DOCTYPE svg PUBLIC "-//W3C//DTD SVG 20010904//EN"
 "http://www.w3.org/TR/2001/REC-SVG-20010904/DTD/svg10.dtd">
<svg version="1.0" xmlns="http://www.w3.org/2000/svg"
 width="400.000000pt" height="300.000000pt" viewBox="0 0 400.000000 300.000000"
 preserveAspectRatio="xMidYMid meet">

<g transform="translate(0.000000,300.000000) scale(0.100000,-0.100000)"
fill="#000000" stroke="none">
<path d="M1365 2783 c9 -20 38 -60 65 -88 35 -38 50 -63 55 -91 12 -74 15 -83
41 -111 l26 -28 -16 28 c-10 16 -23 60 -31 100 -12 66 -17 75 -63 117 -27 25
-57 60 -66 78 -23 44 -30 41 -11 -5z"/>
<path d="M2126 2735 c-8 -8 -22 -15 -30 -15 -9 0 -16 -8 -16 -19 0 -14 9 -20
38 -23 20 -3 38 -4 39 -3 2 1 6 15 9 32 7 35 -16 51 -40 28z m34 -20 c0 -7 -7
-16 -16 -19 -25 -10 -54 -7 -54 5 0 7 10 9 25 7 13 -3 22 -1 19 3 -7 13 6 30
17 24 5 -4 9 -12 9 -20z"/>
<path d="M2753 2686 c-98 -46 -127 -128 -78 -223 33 -63 24 -89 -45 -139 -59
-43 -65 -52 -12 -22 94 54 112 99 72 178 -26 51 -25 89 3 130 30 45 67 70 124
86 40 10 43 13 18 13 -16 1 -53 -10 -82 -23z"/>
<path d="M1965 2670 c-3 -5 -15 -10 -26 -10 -30 0 -20 -34 11 -38 26 -3 56 30
45 48 -8 13 -22 13 -30 0z m25 -9 c0 -6 -4 -13 -10 -16 -5 -3 -10 1 -10 9 0 9
5 16 10 16 6 0 10 -4 10 -9z m-35 -21 c-3 -5 -10 -10 -16 -10 -5 0 -9 5 -9 10
0 6 7 10 16 10 8 0 12 -4 9 -10z"/>
<path d="M2413 2658 c3 -9 -3 -32 -14 -52 -25 -47 -24 -80 2 -123 19 -30 20
-40 11 -71 -15 -48 -6 -54 13 -9 20 48 19 69 -5 100 -23 29 -25 52 -5 87 17
31 19 66 3 76 -7 5 -9 2 -5 -8z"/>
<path d="M1629 2619 c-7 -14 -9 -50 -4 -108 6 -79 5 -90 -19 -141 -31 -67 -33
-128 -6 -189 24 -51 26 -91 6 -91 -12 0 -13 -6 -4 -31 6 -16 7 -49 4 -72 -4
-23 -3 -38 1 -34 4 5 13 -20 19 -55 8 -40 29 -91 58 -142 32 -57 47 -94 51
-135 4 -31 13 -96 20 -146 14 -102 11 -119 -19 -111 -11 4 -34 9 -51 11 l-30
5 28 -11 c15 -6 25 -15 22 -20 -4 -5 0 -6 8 -3 10 3 14 -3 13 -23 -1 -22 -6
-29 -26 -31 -45 -5 -57 -13 -35 -22 11 -5 27 -9 35 -9 13 -1 13 0 0 10 -12 8
-9 9 12 5 15 -3 30 -2 33 4 14 22 24 7 38 -57 14 -59 14 -71 1 -90 -49 -76
-382 -74 -442 2 -17 21 -18 32 -11 67 20 93 18 89 39 78 10 -5 22 -10 27 -10
4 1 -4 8 -19 16 -32 17 -34 26 -13 44 13 10 15 9 15 -8 0 -13 11 -27 28 -36
15 -9 21 -16 12 -16 -36 -3 31 -18 91 -21 48 -3 63 0 61 9 -2 10 3 10 17 2 11
-5 33 -10 50 -10 l29 0 -21 25 c-17 18 -23 21 -25 9 -2 -8 -7 -12 -12 -9 -17
11 3 44 29 48 14 2 7 4 -17 3 -36 -1 -42 -4 -38 -19 2 -9 0 -14 -6 -11 -5 3
-7 16 -4 27 3 13 -1 26 -12 34 -14 10 -15 14 -3 22 9 6 6 9 -13 9 -15 0 -34 6
-44 15 -31 28 -132 5 -132 -30 0 -9 -7 -24 -15 -33 -8 -8 -23 -54 -34 -100
-18 -77 -18 -87 -5 -108 28 -43 98 -66 215 -70 153 -6 253 25 278 86 9 22 19
28 48 30 68 5 138 63 150 124 4 20 10 27 20 24 8 -4 22 -6 32 -6 10 0 24 -15
34 -35 25 -52 58 -69 119 -62 57 7 98 30 105 58 4 16 15 19 60 19 53 0 91 12
105 34 4 6 8 31 8 56 l0 45 138 2 c185 3 282 33 205 64 -33 14 -254 18 -332 6
l-54 -8 6 88 c7 120 10 125 52 107 101 -42 236 11 284 110 25 52 27 101 5 110
-18 7 -44 -10 -44 -28 0 -33 -91 -86 -147 -86 -69 0 -106 44 -116 137 -3 31
-14 64 -26 79 -12 15 -21 32 -21 39 0 24 -60 94 -103 119 -24 14 -66 29 -93
33 -41 5 -55 13 -91 52 -23 25 -44 56 -47 70 -3 15 8 62 24 111 25 72 27 87
16 99 -17 16 -63 4 -138 -37 -42 -22 -54 -24 -110 -18 -78 9 -84 13 -161 91
-67 69 -89 78 -108 44z m70 -125 c-7 -8 -6 -14 2 -20 8 -4 9 -3 5 4 -4 7 -2
12 3 12 6 0 11 -7 11 -15 0 -18 5 -19 32 -4 23 12 68 -2 68 -21 0 -16 -63 -69
-83 -70 -60 -1 -124 -83 -107 -139 16 -52 28 -76 49 -95 20 -18 21 -18 38 2
10 11 30 28 45 37 l28 17 -6 -30 c-5 -22 -1 -36 11 -48 9 -9 14 -25 12 -35 -3
-10 -2 -20 2 -22 3 -2 0 -2 -7 0 -8 1 -24 3 -37 3 -12 0 -48 21 -78 46 -88 72
-107 148 -62 249 10 22 17 46 16 53 -1 7 9 12 24 12 15 0 24 4 20 10 -3 6 0
10 7 10 7 0 0 10 -15 21 -21 16 -25 24 -17 34 8 9 8 15 0 20 -6 3 -8 11 -4 16
4 6 16 1 30 -12 17 -16 21 -26 13 -35z m204 -31 c-7 -2 -19 -2 -25 0 -7 3 -2
5 12 5 14 0 19 -2 13 -5z m97 -20 c0 -6 10 -19 22 -27 12 -9 18 -16 13 -16 -6
0 -3 -5 5 -10 13 -8 13 -10 0 -10 -9 0 -7 -6 8 -16 13 -9 21 -22 18 -29 -2 -7
2 -16 10 -19 17 -7 19 -73 3 -131 -14 -52 -79 -115 -117 -114 -16 0 -21 3 -12
6 80 30 130 139 100 218 -5 14 -20 29 -33 34 -29 11 -42 27 -56 73 -7 21 -20
42 -29 47 -12 7 -5 9 26 8 25 -1 42 -7 42 -14z m97 11 c-3 -3 -12 -4 -19 -1
-8 3 -5 6 6 6 11 1 17 -2 13 -5z m13 -19 c0 -2 -16 -5 -35 -7 -21 -2 -35 0
-35 7 0 7 14 9 35 7 19 -2 35 -5 35 -7z m-201 -111 c6 -7 2 -31 -11 -65 -11
-30 -22 -66 -25 -81 -4 -21 -11 -28 -27 -27 -38 1 -56 13 -46 29 5 8 10 42 10
75 0 37 6 68 15 79 8 11 15 16 15 12 0 -4 8 0 17 9 16 16 17 16 29 -1 8 -11
18 -24 23 -30z m-131 -26 c7 -7 12 -22 12 -35 0 -19 -5 -23 -29 -23 -21 0 -32
6 -36 20 -12 37 27 64 53 38z m199 -44 c7 -20 -8 -48 -29 -52 -26 -5 -50 26
-38 49 13 23 58 25 67 3z m223 -58 c19 -8 29 -15 22 -16 -7 0 -10 -5 -6 -11 9
-16 12 -89 3 -89 -4 0 -4 -13 1 -30 6 -22 5 -34 -7 -45 -13 -14 -13 -18 1 -40
20 -31 20 -37 -1 -33 -10 2 -17 -3 -16 -9 2 -8 -8 -13 -23 -13 -40 0 -25 -20
52 -71 100 -67 126 -99 143 -172 23 -100 20 -136 -14 -163 -27 -21 -30 -22
-36 -6 -3 9 -5 72 -5 139 1 84 -2 116 -9 105 -5 -9 -10 -64 -11 -122 0 -58 -4
-158 -9 -223 -8 -113 -9 -119 -32 -128 -35 -13 -86 -11 -107 4 -15 11 -18 32
-20 142 -4 186 -41 275 -116 275 -14 0 -41 9 -60 20 -19 11 -62 34 -94 51
l-60 31 47 -47 c26 -26 54 -59 61 -74 24 -47 46 -178 29 -168 -5 3 -9 -52 -11
-122 -3 -121 -4 -127 -29 -149 -24 -22 -26 -22 -44 -6 -10 9 -25 14 -33 11
-12 -5 -18 5 -26 36 -6 23 -14 49 -19 57 -5 9 -2 24 7 38 12 19 13 32 4 75 -6
29 -16 93 -22 142 -9 78 -17 103 -60 187 -43 83 -50 106 -52 164 -3 57 0 67
14 69 10 2 16 -2 15 -7 -1 -6 4 -13 11 -15 8 -3 10 1 5 13 -5 14 -3 16 13 10
10 -4 21 -8 24 -9 3 -1 5 2 5 8 0 5 -7 9 -15 7 -11 -2 -10 1 3 8 9 6 15 17 12
23 -3 7 2 2 11 -10 19 -26 34 -30 34 -8 0 8 2 15 4 15 2 0 11 3 20 6 9 3 16 1
16 -6 0 -6 -4 -9 -9 -5 -5 3 -12 1 -16 -5 -6 -9 6 -13 22 -7 4 1 10 -11 13
-28 10 -58 115 -98 155 -59 19 20 14 54 -16 96 l-20 28 26 0 c53 0 135 112
135 186 0 15 4 14 28 -9 15 -14 43 -33 62 -41z m-260 -92 c0 -45 -47 -67 -91
-44 -26 14 -24 37 4 51 28 15 37 28 37 58 0 24 1 23 25 -9 14 -19 25 -44 25
-56z m-72 31 c1 -1 -9 -7 -22 -13 -20 -9 -27 -7 -41 8 -17 19 -16 19 21 13 22
-3 40 -7 42 -8z m-190 -31 c12 -8 22 -26 22 -40 0 -13 6 -24 13 -24 8 0 7 -4
-3 -10 -8 -5 -24 -9 -35 -9 -16 1 -16 2 5 9 14 4 20 8 13 9 -6 1 -9 10 -6 24
5 20 4 21 -10 7 -9 -8 -25 -33 -36 -55 l-20 -40 -1 37 c0 20 -3 45 -6 55 -4
14 -1 12 16 -6 l21 -24 -7 41 c-7 45 -1 51 34 26z m295 -98 c25 -48 15 -70
-34 -74 -52 -4 -92 25 -95 70 -3 32 -1 36 20 34 19 -1 22 -4 14 -14 -9 -11
-13 -11 -19 0 -5 8 -8 5 -6 -10 1 -22 2 -21 32 8 38 39 63 35 88 -14z m817
-140 c0 -42 -9 -68 -21 -60 -5 3 -6 -1 -3 -9 7 -18 -47 -64 -105 -90 -47 -21
-87 -18 -148 11 -31 15 -34 20 -29 45 3 16 6 39 6 50 0 20 0 20 23 -1 13 -12
37 -24 53 -28 65 -13 174 39 194 92 14 35 30 29 30 -10z m-736 -269 c31 -86
26 -120 -21 -131 -15 -4 -40 -21 -55 -39 l-27 -32 -1 35 c0 19 10 81 22 138
27 130 43 135 82 29z m395 -200 c16 -42 1 -62 -49 -64 -84 -4 -120 32 -56 55
37 14 61 43 73 88 7 29 7 28 14 -11 4 -22 12 -53 18 -68z m-970 -24 c-4 -19
-15 -46 -25 -61 -13 -20 -13 -24 -2 -15 8 7 19 9 23 5 5 -4 6 0 2 10 -4 11 -1
15 11 13 9 -2 20 -4 24 -4 4 -1 4 -9 1 -18 -6 -16 -4 -16 9 -5 14 11 18 10 27
-5 8 -15 6 -19 -10 -20 -10 -1 -21 3 -24 8 -4 5 -15 3 -28 -6 -12 -8 -28 -15
-37 -15 -8 0 0 9 18 20 17 11 32 25 32 32 0 6 -7 3 -15 -8 -8 -10 -15 -15 -15
-10 0 5 -7 3 -15 -4 -12 -10 -20 -7 -45 18 -55 55 -28 102 56 99 19 -1 20 -5
13 -34z m27 -18 c-3 -8 -11 -15 -18 -14 -10 0 -10 2 0 6 6 2 12 14 13 26 0 12
3 16 6 9 3 -7 2 -19 -1 -27z m43 -24 c-1 -12 -2 -12 -6 2 -2 9 -9 15 -14 12
-5 -4 -9 4 -9 17 1 22 1 22 15 4 8 -11 14 -27 14 -35z m207 -6 c7 -16 -12 -45
-28 -45 -6 0 -5 7 2 15 7 8 10 22 6 30 -3 8 -1 15 5 15 5 0 12 -7 15 -15z"/>
<path d="M1670 2525 c6 -8 9 -19 5 -24 -4 -7 0 -8 10 -5 14 6 14 8 -1 25 -20
22 -32 26 -14 4z"/>
<path d="M1747 2294 c-15 -15 -7 -45 11 -42 9 2 17 12 17 22 0 20 -16 31 -28
20z"/>
<path d="M1923 2244 c-7 -18 11 -39 26 -30 17 11 13 46 -4 46 -9 0 -18 -7 -22
-16z"/>
<path d="M2075 1809 c-4 -6 -5 -12 -2 -15 2 -3 7 2 10 11 7 17 1 20 -8 4z"/>
<path d="M1770 1775 c13 -14 26 -25 28 -25 3 0 -5 11 -18 25 -13 14 -26 25
-28 25 -3 0 5 -11 18 -25z"/>
<path d="M2152 1490 c0 -14 2 -19 5 -12 2 6 2 18 0 25 -3 6 -5 1 -5 -13z"/>
<path d="M1936 2002 c-3 -6 -1 -14 5 -17 15 -10 25 3 12 16 -7 7 -13 7 -17 1z"/>
<path d="M1430 1370 c0 -5 5 -10 10 -10 6 0 10 5 10 10 0 6 -4 10 -10 10 -5 0
-10 -4 -10 -10z"/>
<path d="M1525 1290 c-3 -5 -1 -10 4 -10 6 0 11 5 11 10 0 6 -2 10 -4 10 -3 0
-8 -4 -11 -10z"/>
<path d="M1210 2513 c0 -23 66 -98 102 -116 29 -14 44 -16 70 -8 l33 9 -33 1
c-47 1 -84 23 -131 78 -22 27 -41 43 -41 36z"/>
<path d="M2776 2265 c-4 -16 -27 -39 -61 -62 -37 -24 -57 -45 -61 -62 -3 -14
-7 -30 -8 -36 -2 -5 0 -19 5 -30 6 -16 8 -13 8 14 1 33 6 39 99 123 16 15 32
38 34 52 7 33 -8 34 -16 1z"/>
<path d="M1099 1837 c-27 -59 20 -138 91 -152 65 -12 69 -15 81 -58 17 -68 79
-150 134 -179 11 -5 3 5 -19 23 -37 31 -96 136 -96 170 0 28 -37 56 -85 64
-31 4 -55 15 -71 32 -29 31 -40 79 -23 99 6 8 9 17 6 21 -4 3 -11 -6 -18 -20z"/>
<path d="M1477 1675 c-9 -8 -25 -14 -37 -13 -25 3 -50 -26 -35 -41 6 -4 27
-12 48 -15 28 -5 37 -4 37 7 0 8 9 17 21 20 15 4 20 12 17 29 -4 28 -30 35
-51 13z m39 -7 c9 -15 -27 -41 -40 -28 -6 6 -5 15 4 25 15 18 26 19 36 3z
m-68 -20 c17 -17 15 -28 -7 -28 -22 0 -35 15 -26 30 8 13 18 13 33 -2z"/>
<path d="M1665 1530 c-3 -5 -15 -10 -26 -10 -32 0 -19 -34 14 -38 25 -3 27 -1
21 22 -6 26 10 37 19 14 3 -8 6 -6 6 5 1 18 -24 24 -34 7z m-5 -30 c0 -5 -7
-10 -15 -10 -8 0 -15 5 -15 10 0 6 7 10 15 10 8 0 15 -4 15 -10z"/>
<path d="M1171 1405 c-1 -22 30 -47 46 -37 13 9 -2 52 -18 52 -8 0 -8 -4 1
-15 10 -12 10 -15 -3 -15 -9 0 -18 8 -20 18 -4 14 -5 14 -6 -3z"/>
<path d="M1239 1411 c8 -5 10 -14 6 -22 -6 -11 -5 -11 5 -2 14 12 6 33 -13 33
-8 0 -7 -3 2 -9z"/>
<path d="M1593 1391 c10 -4 18 -10 18 -14 -2 -20 0 -27 9 -27 5 0 7 7 4 15 -4
10 0 15 12 16 18 0 17 1 -1 9 -11 5 -29 9 -40 9 -18 0 -19 -1 -2 -8z"/>
<path d="M1675 1320 c3 -5 8 -10 11 -10 2 0 4 5 4 10 0 6 -5 10 -11 10 -5 0
-7 -4 -4 -10z"/>
</g>
</svg>
